# xmcd
#
# Track frame offsets: 
#        150
#        14195
#        28604
#        42361
#        57927
#        73200
#        86177
#        99178
#        113910
#        127523
#        141307
#        155249
#        168809
#        181787
#        194668
#        207436
#        221642
#        235254
#        248132
#        261337
#        276902
#        291051
#        305490
#        319262
#        330864
#
# Disc length: 4565 seconds
#
# Revision: 0
# Processed by: cddbd v1.5.2PL0 Copyright (c) Steve Scherf et al.
# Submitted via: ExactAudioCopyFreeDBPlugin 1.0
#
DISCID=7a11d319
DTITLE=Various Artist - The Definitive Country Blues Collection - Century Of 
DTITLE=The Blues CD1
DYEAR=2014
DGENRE=Blues
TTITLE0=Charley Patton - Mississippi Boweavil Blues
TTITLE1=Son House - My Black Mama Pt. 1
TTITLE2=Willie Brown - Future Blues
TTITLE3=Tommy Johnson - Canned Heat
TTITLE4=Ishman Bracey - Left Alone Blues
TTITLE5=Robert Johnson - Preachin' Blues (Up Jumped The Devil)
TTITLE6=J.J. Johnson - Kind Hearted Woman Blues
TTITLE7=David Honeyboy Edwards - Wind Howlin' Blues
TTITLE8=Skip James - Devil Got My Woman
TTITLE9=Bukka White - Shake 'Em All Down
TTITLE10=Mississippi Sheiks - Sitting On The Top Of The World
TTITLE11=Mississippi John Hurt - Stack O'Lee Blues
TTITLE12=Ed Andrews - Barrelhouse Blues
TTITLE13=Robert Petway - Catfish Blues
TTITLE14=Tommy McClennan - Bottle It Up And Go
TTITLE15=William Harris - Bull Frog Blues
TTITLE16=J. Rodgers - Mule Skinner Blues
TTITLE17=Sol Hoopii - Farewell Blues
TTITLE18=Kokomo Arnold - Old Original Kokomo Blues
TTITLE19=Muddy Waters - Country Blues
TTITLE20=McKinley Morganfield - I Be's Troubled
TTITLE21=John Lee Hooker - Boogie Chillen
TTITLE22=Robert Lockwood Jr. - Little Boy Blue
TTITLE23=Johnny Shines - Ramblin'
TTITLE24=Sam Collins - Yellow Dog Blues
EXTD=
EXTT0=
EXTT1=
EXTT2=
EXTT3=
EXTT4=
EXTT5=
EXTT6=
EXTT7=
EXTT8=
EXTT9=
EXTT10=
EXTT11=
EXTT12=
EXTT13=
EXTT14=
EXTT15=
EXTT16=
EXTT17=
EXTT18=
EXTT19=
EXTT20=
EXTT21=
EXTT22=
EXTT23=
EXTT24=
PLAYORDER=
